HIERARCHY
ROOT Hips
{
	OFFSET 0.00000 0.00000 0.00000
	CHANNELS 6 Xposition Yposition Zposition Zrotation Yrotation Xrotation 
	JOINT LHipJoint
	{
		OFFSET 0 0 0
		CHANNELS 3 Zrotation Yrotation Xrotation
		JOINT LeftHip
		{
			OFFSET 1.57338 -1.94743 0.52196
			CHANNELS 3 Zrotation Yrotation Xrotation
			JOINT LeftKnee
			{
				OFFSET 2.60333 -7.15259 0.00000
				CHANNELS 3 Zrotation Yrotation Xrotation
				JOINT LeftAnkle
				{
					OFFSET 2.77855 -7.63400 0.00000
					CHANNELS 3 Zrotation Yrotation Xrotation
					JOINT LeftToe
					{
						OFFSET 0.19847 -0.54529 2.28466
						CHANNELS 3 Zrotation Yrotation Xrotation
						End Site
						{
							OFFSET 0.00000 -0.00000 1.17993
						}
					}
				}
			}
		}
	}
	JOINT RHipJoint
	{
		OFFSET 0 0 0
		CHANNELS 3 Zrotation Yrotation Xrotation
		JOINT RightHip
		{
			OFFSET -1.61527 -1.94743 0.52196
			CHANNELS 3 Zrotation Yrotation Xrotation
			JOINT RightKnee
			{
				OFFSET -2.53829 -6.97390 0.00000
				CHANNELS 3 Zrotation Yrotation Xrotation
				JOINT RightAnkle
				{
					OFFSET -2.80762 -7.71387 0.00000
					CHANNELS 3 Zrotation Yrotation Xrotation
					JOINT RightToe
					{
						OFFSET -0.30536 -0.83898 2.28801
						CHANNELS 3 Zrotation Yrotation Xrotation
						End Site
						{
							OFFSET -0.00000 -0.00000 1.21323
						}
					}
				}
			}
		}
	}
	JOINT lowerback
	{
		OFFSET 0 0 0
		CHANNELS 3 Zrotation Yrotation Xrotation
		JOINT Chest
		{
			OFFSET -0.04381 1.99497 -0.19778
			CHANNELS 3 Zrotation Yrotation Xrotation
			JOINT Chest2
			{
				OFFSET -0.01959 2.01295 -0.04372
				CHANNELS 3 Zrotation Yrotation Xrotation
				JOINT lowerneck
				{
					OFFSET 0 0 0
					CHANNELS 3 Zrotation Yrotation Xrotation
					JOINT Neck
					{
						OFFSET -0.05459 1.76913 0.09708
						CHANNELS 3 Zrotation Yrotation Xrotation
						JOINT Head
						{
							OFFSET 0.09461 1.77368 -0.11172
							CHANNELS 3 Zrotation Yrotation Xrotation
							End Site
							{
								OFFSET 0.03812 1.78157 -0.04834
							}
						}
					}
				}
				JOINT LeftCollar
				{
					OFFSET 0 0 0
					CHANNELS 3 Zrotation Yrotation Xrotation
					JOINT LeftShoulder
					{
						OFFSET 3.50922 1.24034 -0.28866
CHANNELS 3 Zrotation Xrotation Yrotation
						JOINT LeftElbow
						{
OFFSET 0 -5.401880 0.000000
CHANNELS 3 Zrotation Xrotation Yrotation
							JOINT LeftWrist
							{
OFFSET 0 -3.685590 0.000000
CHANNELS 3 Zrotation Xrotation Yrotation
								JOINT lhand
								{
									OFFSET 0 0 0
CHANNELS 3 Zrotation Xrotation Yrotation
									JOINT LFingers
									{
OFFSET 0 -0.617530 0.000000
CHANNELS 3 Zrotation Xrotation Yrotation
										End Site
										{
OFFSET 0 -0.497870 0.000000
										}
									}
								}
								JOINT LThumb
								{
OFFSET 0 0.000000 0.000000
CHANNELS 3 Zrotation Xrotation Yrotation
									End Site
									{
OFFSET 0 -0.505470 0.505470
									}
								}
							}
						}
					}
				}
				JOINT RightCollar
				{
					OFFSET 0 0 0
					CHANNELS 3 Zrotation Yrotation Xrotation
					JOINT RightShoulder
					{
						OFFSET -2.95373 1.39649 -0.27346
CHANNELS 3 Zrotation Xrotation Yrotation
						JOINT RightElbow
						{
OFFSET 0 -6.106700 -0.000000
CHANNELS 3 Zrotation Xrotation Yrotation
							JOINT RightWrist
							{
OFFSET 0 -3.630520 0.000000
CHANNELS 3 Zrotation Xrotation Yrotation
								JOINT rhand
								{
									OFFSET 0 0 0
CHANNELS 3 Zrotation Xrotation Yrotation
									JOINT RFingers
									{
OFFSET 0 -0.583850 0.000000
CHANNELS 3 Zrotation Xrotation Yrotation
										End Site
										{
OFFSET 0 -0.470710 0.000000
										}
									}
								}
								JOINT RThumb
								{
OFFSET 0 0.000000 0.000000
CHANNELS 3 Zrotation Xrotation Yrotation
									End Site
									{
OFFSET 0 -0.477900 0.477900
									}
								}
							}
						}
					}
				}
			}
		}
	}
}
MOTION
Frames: 6
Frame Time: 0.008333333333333333
8.976379 18.903995 -8.543701 -9.061188 7.692987 11.171250 0.000000 0.000000 0.000000 -3.380567 -21.670800 -23.352633 2.679895 10.157820 29.489469 0.468285 -2.383542 -12.325756 0.027059 -1.061869 -2.919042 0.000000 0.000000 0.000000 17.892376 18.938028 -16.680664 -1.058368 -6.541140 18.362937 1.290235 -20.760693 -15.243237 -0.370587 3.909526 -10.822466 -7.661429 8.561556 10.409367 -7.754635 10.573766 6.091995 -4.941603 5.224493 0.830186 -2.804723 8.511581 -7.697410 8.005163 10.709690 28.083440 4.296204 5.552530 9.461228 0.000000 0.000000 0.000000 13.082373 -30.981314 -17.894343 17.408866 -27.393639 4.273774 46.050224 -11.976113 -15.168647 0.000000 0.000000 0.000000 -7.125000 0.000000 0.000000 18.725741 50.359263 -2.551419 0.000000 0.000000 0.000000 4.185405 -42.568430 84.830222 -119.043111 -56.559252 -84.861522 -23.075632 -27.960361 -9.501875 0.000000 0.000000 0.000000 7.125000 0.000000 0.000000 2.772514 19.674842 1.679173
9.047662 18.942596 -8.574268 -9.750600 6.867761 10.254745 0.000000 0.000000 0.000000 -3.352646 -21.340648 -21.740389 2.573065 9.969589 28.878425 0.475108 -1.719835 -12.538547 0.024686 -1.014299 -2.788193 0.000000 0.000000 0.000000 17.996286 18.754655 -16.207149 -1.109151 -6.691195 18.803788 1.052480 -18.533607 -12.545250 -0.449854 4.302857 -11.930290 -8.217998 8.100221 10.626830 -8.036648 9.854161 5.909537 -4.920046 4.856852 0.459551 -2.621456 9.229525 -7.286263 7.339987 11.822025 27.539771 4.067974 6.005002 9.187835 0.000000 0.000000 0.000000 12.474789 -33.145310 -19.420805 18.656755 -28.989914 4.863424 46.693442 -8.641405 -15.312033 0.000000 0.000000 0.000000 -7.125000 0.000000 0.000000 19.474852 50.697547 -2.826932 0.000000 0.000000 0.000000 2.613724 -40.893713 78.809201 -123.148980 -55.410490 -88.265456 -25.285392 -28.237727 -8.769585 0.000000 0.000000 0.000000 7.125000 0.000000 0.000000 1.161828 20.298649 0.686877
9.142281 18.959053 -8.648178 -9.764858 6.200141 10.217359 0.000000 0.000000 0.000000 -3.718648 -21.267471 -21.232892 2.410037 9.672499 27.922524 0.439132 -0.966947 -12.218808 0.086229 -1.891261 -5.205369 0.000000 0.000000 0.000000 17.223858 18.396130 -17.749538 -1.313609 -7.259691 20.487037 0.881234 -16.865026 -10.782626 -0.471682 4.404498 -12.217605 -9.104950 7.486197 10.629825 -8.355781 8.950338 5.874943 -4.691998 4.387417 0.326817 -2.246864 9.946966 -7.418946 6.382254 12.965659 26.995299 3.758575 6.459646 9.066723 0.000000 0.000000 0.000000 12.262199 -36.251495 -23.947178 18.790813 -29.157910 4.928503 48.332151 -4.641439 -16.689959 0.000000 0.000000 0.000000 -7.125000 0.000000 0.000000 21.777423 52.911938 -4.406764 0.000000 0.000000 0.000000 -1.569172 -40.430232 72.340039 -128.117817 -53.725641 -92.315128 -26.140856 -28.258707 -8.454009 0.000000 0.000000 0.000000 7.125000 0.000000 0.000000 0.532040 20.579083 0.311113
9.228882 18.977518 -8.713832 -10.804771 5.635203 9.673485 0.000000 0.000000 0.000000 -2.982829 -21.008014 -20.665389 2.396183 9.646650 27.840070 0.426651 -0.786002 -12.089058 0.039726 -1.280621 -3.521236 0.000000 0.000000 0.000000 18.044299 18.147056 -18.137168 -1.388857 -7.456307 21.074528 0.904804 -16.782945 -9.249261 -0.634959 5.096719 -14.184942 -8.948826 6.644329 10.993192 -8.066555 7.782533 5.740456 -4.380336 3.807663 -0.063239 -2.875609 10.764722 -7.191827 6.347558 14.199331 27.167564 3.920503 6.951543 8.977964 0.000000 0.000000 0.000000 11.941750 -39.584557 -27.474817 17.406966 -27.390888 4.273053 46.108067 -4.305632 -16.043622 0.000000 0.000000 0.000000 -7.125000 0.000000 0.000000 19.010720 51.506486 -3.142660 0.000000 0.000000 0.000000 -4.806012 -39.339602 69.409945 -132.691013 -51.850152 -95.958663 -27.840877 -27.153612 -8.057334 0.000000 0.000000 0.000000 7.125000 0.000000 0.000000 -0.714481 20.884587 -0.412864
9.324046 18.985251 -8.776592 -10.717821 5.824781 9.420196 0.000000 0.000000 0.000000 -3.345679 -21.612869 -20.266401 2.338763 9.538664 27.495323 0.414691 -0.652650 -11.953333 0.034164 -1.170350 -3.217832 0.000000 0.000000 0.000000 17.389309 18.320994 -18.609382 -1.503306 -7.744094 21.939622 0.932656 -16.931390 -8.622898 -0.701426 5.353218 -14.918749 -9.228005 5.788219 11.367219 -8.161632 6.567107 5.677246 -4.223384 3.205601 -0.364912 -2.836945 11.174867 -7.127853 6.359918 14.765123 27.656716 3.983695 7.195761 9.112310 0.000000 0.000000 0.000000 11.277081 -43.230859 -31.127525 15.139403 -24.339188 3.283625 42.558963 -2.765431 -14.544378 0.000000 0.000000 0.000000 -7.125000 0.000000 0.000000 14.872702 48.803033 -1.427419 0.000000 0.000000 0.000000 -5.817966 -37.357562 67.479220 -135.292613 -50.624254 -97.987656 -30.474005 -25.887391 -7.763752 0.000000 0.000000 0.000000 7.125000 0.000000 0.000000 -2.632775 20.994463 -1.516587
9.420934 18.984988 -8.827986 -10.398309 7.449460 9.273037 0.000000 0.000000 0.000000 -3.850252 -22.179740 -20.668237 2.346823 9.553859 27.543702 0.364153 -1.854642 -10.905246 0.000238 0.076436 0.209886 0.000000 0.000000 0.000000 16.853069 18.042024 -18.956870 -1.604174 -7.987834 22.677115 1.106330 -18.306365 -8.690821 -0.749869 5.530900 -15.429296 -8.402342 4.752440 12.204870 -8.510851 5.138244 5.322607 -4.953160 2.540810 -1.108442 -2.803336 11.000402 -6.820520 6.970723 14.380785 28.251943 4.162962 7.075364 9.231020 0.000000 0.000000 0.000000 9.686249 -47.814683 -35.333503 11.331697 -18.794317 1.881786 37.580755 5.339078 -15.293878 0.000000 0.000000 0.000000 -7.125000 0.000000 0.000000 9.815483 48.766890 -0.919770 0.000000 0.000000 0.000000 -5.338107 -34.039943 63.487025 -136.217143 -50.158123 -98.699885 -33.836686 -26.859371 -7.104641 0.000000 0.000000 0.000000 7.125000 0.000000 0.000000 -5.114183 21.459641 -2.899845
